<?xml version="1.0" encoding="UTF-8"?> <svg xmlns="http://www.w3.org/2000/svg" width="120" height="46" viewBox="0 0 120 46" fill="none"> <path d="M6.92849 7.07458L2.217 11.7861V15.1115L3.60214 16.4966L3.48579 19.2678L1.10852 20.9306V27.3038L5.79894 32.0153H15.4977L18.4539 28.8319H26.7428L30.3311 24.9412L39.3492 24.813L41.5661 22.596V20.0987L44.8916 16.7742V12.8918L41.2895 9.35566H38.5183V6.79792L34.361 3.19582H29.928L27.7111 5.41278L24.6623 1.98199H15.7954L10.8072 7.07458H6.92849Z" fill="url(#paint0_linear_1252_1092)"></path> <path fill-rule="evenodd" clip-rule="evenodd" d="M15.0029 1.20608C15.1063 1.10078 15.2296 1.01713 15.3657 0.960033C15.5017 0.902935 15.6478 0.873529 15.7954 0.873535H24.6623C24.8189 0.873555 24.9737 0.906705 25.1166 0.970807C25.2595 1.03491 25.3872 1.12851 25.4913 1.24547L27.7587 3.7968L29.1438 2.41166C29.2468 2.30875 29.3691 2.22715 29.5036 2.1715C29.6382 2.11586 29.7824 2.08727 29.928 2.08736H34.361C34.6283 2.08869 34.8862 2.18625 35.0874 2.36219L39.2438 5.96521C39.3639 6.06914 39.4603 6.19771 39.5264 6.34219C39.5924 6.48666 39.6267 6.64365 39.6267 6.80252V8.2472H41.2894C41.5801 8.24714 41.8591 8.36131 42.0663 8.56509L45.6684 12.104C45.7732 12.2067 45.8565 12.3293 45.9135 12.4645C45.9704 12.5998 45.9998 12.7451 46 12.8918V16.7715C46 17.0652 45.8833 17.3469 45.6757 17.5548L42.6746 20.5586V22.5933C42.6747 22.7388 42.6462 22.8829 42.5905 23.0173C42.5349 23.1517 42.4532 23.2738 42.3503 23.3766L40.1333 25.5935C39.929 25.7976 39.6534 25.9142 39.3647 25.9187L30.823 26.0396L27.5571 29.5804C27.4535 29.6931 27.3276 29.783 27.1874 29.8445C27.0472 29.906 26.8958 29.9377 26.7427 29.9376H18.9376L16.3102 32.7711C16.2065 32.8831 16.0808 32.9725 15.941 33.0337C15.8012 33.0948 15.6502 33.1265 15.4976 33.1266H5.7989C5.65294 33.1265 5.50844 33.0975 5.37371 33.0414C5.23897 32.9853 5.11666 32.9031 5.0138 32.7995L0.322466 28.0862C0.11609 27.8781 0.000202946 27.597 0 27.3039V20.9306C0.000110811 20.7523 0.0431186 20.5766 0.125392 20.4185C0.207666 20.2603 0.32679 20.1243 0.472706 20.0218L2.39651 18.6733L2.4698 16.9327L1.43186 15.8948C1.32898 15.792 1.24738 15.6698 1.19174 15.5354C1.13609 15.401 1.10749 15.257 1.10756 15.1115V11.7861C1.10747 11.6405 1.13606 11.4963 1.1917 11.3617C1.24734 11.2272 1.32895 11.1049 1.43186 11.0019L6.14335 6.29592C6.24635 6.19301 6.36862 6.1114 6.50318 6.05576C6.63773 6.00011 6.78192 5.97152 6.92753 5.97162H10.3409L15.0029 1.20608ZM10.3885 8.18308H7.38649L3.32543 12.2451V14.6526L4.38627 15.7134C4.4946 15.8219 4.57927 15.9517 4.63492 16.0945C4.69058 16.2374 4.71603 16.3902 4.70966 16.5434L4.61805 18.8135L7.35993 21.4372C7.46513 21.5378 7.54949 21.6582 7.60817 21.7914C7.66686 21.9246 7.69873 22.0681 7.70196 22.2137C7.70519 22.3592 7.67973 22.504 7.62701 22.6397C7.5743 22.7754 7.49537 22.8994 7.39474 23.0046C7.2941 23.1098 7.17373 23.1942 7.0405 23.2529C6.90727 23.3116 6.76378 23.3434 6.61823 23.3467C6.47268 23.3499 6.32791 23.3244 6.19221 23.2717C6.0565 23.219 5.9325 23.1401 5.8273 23.0394L3.37582 20.697L2.21696 21.5077V26.8458L6.25969 30.9069H15.0139L16.8782 28.8979L14.8133 27.0272H12.9289L12.1447 27.8105C12.0424 27.916 11.9201 28.0001 11.7849 28.0579C11.6498 28.1157 11.5045 28.146 11.3575 28.1471C11.2105 28.1482 11.0648 28.1201 10.9288 28.0644C10.7927 28.0087 10.6692 27.9264 10.5652 27.8225C10.4613 27.7186 10.3791 27.595 10.3233 27.459C10.2676 27.323 10.2395 27.1772 10.2406 27.0302C10.2417 26.8833 10.2721 26.738 10.3299 26.6028C10.3877 26.4677 10.4718 26.3454 10.5773 26.243L11.6857 25.1345C11.7887 25.0316 11.911 24.95 12.0456 24.8944C12.1801 24.8387 12.3243 24.8102 12.4699 24.8102H15.2411C15.5161 24.8101 15.7813 24.9123 15.985 25.097L18.8817 27.7207H26.2581L28.7664 25.0008L26.5934 22.9909L19.9324 22.87C19.6657 22.8654 19.4096 22.7646 19.2115 22.586L16.4403 20.0914C16.332 19.9941 16.244 19.8764 16.1812 19.7451C16.1184 19.6137 16.0821 19.4713 16.0744 19.3259C16.0666 19.1805 16.0876 19.035 16.1361 18.8978C16.1845 18.7605 16.2596 18.6341 16.3569 18.5258C16.5535 18.3072 16.8289 18.1755 17.1225 18.1599C17.2678 18.1521 17.4133 18.1731 17.5506 18.2216C17.6879 18.2701 17.8143 18.3451 17.9225 18.4425L20.3868 20.6594L26.6007 20.7703L28.9047 18.5835C29.0099 18.4813 29.1343 18.401 29.2707 18.3472C29.4072 18.2934 29.553 18.2672 29.6996 18.2701C29.8462 18.2731 29.9908 18.3051 30.125 18.3643C30.2592 18.4236 30.3803 18.5088 30.4813 18.6152C30.5822 18.7216 30.6611 18.847 30.7133 18.984C30.7655 19.1211 30.7899 19.2672 30.7852 19.4138C30.7806 19.5604 30.7468 19.7046 30.686 19.838C30.6252 19.9715 30.5385 20.0916 30.4309 20.1913L28.6564 21.876L30.758 23.8199L38.8838 23.7045L40.4576 22.1343V20.0988C40.458 19.8049 40.575 19.5232 40.7828 19.3155L43.783 16.3144V13.359L40.836 10.4642H39.0166L37.6846 11.9666C37.5885 12.0773 37.4715 12.1678 37.3402 12.233C37.209 12.2982 37.0661 12.3367 36.9199 12.3463C36.7736 12.3559 36.6269 12.3364 36.4883 12.2889C36.3496 12.2414 36.2218 12.1669 36.1121 12.0697C36.0024 11.9725 35.9131 11.8545 35.8493 11.7226C35.7855 11.5907 35.7485 11.4474 35.7405 11.301C35.7324 11.1547 35.7535 11.0082 35.8024 10.8701C35.8513 10.7319 35.9272 10.6049 36.0255 10.4962L37.4098 8.93886V7.30362L33.9478 4.30432H30.387L28.8232 5.87176V12.0673C28.8232 12.2145 28.7938 12.3602 28.7369 12.496C28.6799 12.6317 28.5965 12.7548 28.4915 12.8579L26.9552 14.3576C26.7456 14.5641 26.4624 14.6789 26.1681 14.6766C25.8738 14.6744 25.5925 14.5553 25.386 14.3457C25.1795 14.136 25.0647 13.8529 25.0669 13.5586C25.0692 13.2643 25.1882 12.9829 25.3979 12.7764L26.5989 11.5974V5.83787L24.1648 3.08958H16.2607L12.4131 7.01505L14.1216 8.5202L15.6506 9.84488H17.9234L19.3168 8.54402C19.4232 8.44465 19.5482 8.36721 19.6845 8.31612C19.8209 8.26504 19.9659 8.24131 20.1114 8.24628C20.2569 8.25126 20.4 8.28485 20.5326 8.34513C20.6651 8.40541 20.7844 8.4912 20.8838 8.59761C20.9832 8.70402 21.0606 8.82896 21.1117 8.9653C21.1628 9.10163 21.1865 9.2467 21.1816 9.3922C21.1766 9.53771 21.143 9.68081 21.0827 9.81334C21.0224 9.94587 20.9366 10.0652 20.8302 10.1646L19.1171 11.7641C18.9117 11.9556 18.6413 12.062 18.3604 12.0618H15.2411C14.9744 12.0618 14.7166 11.9659 14.5146 11.7916L13.4227 10.8443L11.8396 12.3193C11.6238 12.5157 11.3393 12.6191 11.0477 12.607C10.7562 12.5949 10.4811 12.4684 10.2823 12.2548C10.0834 12.0413 9.97683 11.7579 9.98557 11.4662C9.99431 11.1746 10.1177 10.8981 10.329 10.6968L11.7453 9.37767L10.3885 8.18308Z" fill="#263937"></path> <path d="M11.9149 13.1721C11.9149 13.6106 11.7848 14.0392 11.5412 14.4038C11.2976 14.7683 10.9514 15.0525 10.5463 15.2203C10.1412 15.3881 9.69545 15.432 9.26541 15.3465C8.83536 15.2609 8.44034 15.0498 8.13029 14.7397C7.82024 14.4297 7.6091 14.0346 7.52356 13.6046C7.43801 13.1746 7.48192 12.7288 7.64971 12.3237C7.81751 11.9186 8.10166 11.5724 8.46624 11.3288C8.83082 11.0852 9.25944 10.9551 9.69791 10.9551C10.2859 10.9551 10.8498 11.1887 11.2655 11.6045C11.6813 12.0202 11.9149 12.5841 11.9149 13.1721Z" fill="white"></path> <path fill-rule="evenodd" clip-rule="evenodd" d="M9.69791 13.948C9.85138 13.948 10.0014 13.9025 10.129 13.8173C10.2566 13.732 10.3561 13.6108 10.4148 13.469C10.4735 13.3273 10.4889 13.1712 10.4589 13.0207C10.429 12.8702 10.3551 12.7319 10.2466 12.6234C10.1381 12.5149 9.99981 12.441 9.84929 12.4111C9.69878 12.3811 9.54276 12.3965 9.40098 12.4552C9.25919 12.514 9.13801 12.6134 9.05275 12.741C8.96749 12.8686 8.92198 13.0186 8.92198 13.1721C8.92198 13.3779 9.00373 13.5752 9.14925 13.7208C9.29476 13.8663 9.49212 13.948 9.69791 13.948ZM9.69791 15.3891C10.1364 15.3891 10.565 15.259 10.9296 15.0154C11.2942 14.7718 11.5783 14.4256 11.7461 14.0205C11.9139 13.6154 11.9578 13.1696 11.8723 12.7396C11.7867 12.3095 11.5756 11.9145 11.2655 11.6045C10.9555 11.2944 10.5605 11.0833 10.1304 10.9977C9.70037 10.9122 9.25462 10.9561 8.84952 11.1239C8.44443 11.2917 8.09818 11.5758 7.85458 11.9404C7.61098 12.305 7.48096 12.7336 7.48096 13.1721C7.48096 13.7601 7.71453 14.324 8.13029 14.7397C8.54605 15.1555 9.10994 15.3891 9.69791 15.3891Z" fill="#263937"></path> <path d="M23.2395 8.29136C23.2395 8.72983 23.1094 9.15846 22.8658 9.52303C22.6222 9.88761 22.276 10.1718 21.8709 10.3396C21.4658 10.5074 21.02 10.5513 20.59 10.4657C20.1599 10.3802 19.7649 10.169 19.4549 9.85898C19.1448 9.54894 18.9337 9.15391 18.8481 8.72387C18.7626 8.29382 18.8065 7.84806 18.9743 7.44297C19.1421 7.03787 19.4262 6.69163 19.7908 6.44803C20.1554 6.20442 20.584 6.0744 21.0225 6.0744C21.6105 6.0744 22.1744 6.30797 22.5901 6.72373C23.0059 7.13949 23.2395 7.70339 23.2395 8.29136Z" fill="white"></path> <path fill-rule="evenodd" clip-rule="evenodd" d="M21.0225 9.06729C21.176 9.06729 21.326 9.02179 21.4536 8.93652C21.5812 8.85126 21.6806 8.73008 21.7394 8.5883C21.7981 8.44651 21.8135 8.2905 21.7835 8.13998C21.7536 7.98946 21.6797 7.85121 21.5712 7.74269C21.4627 7.63417 21.3244 7.56027 21.1739 7.53033C21.0234 7.50039 20.8673 7.51576 20.7256 7.57449C20.5838 7.63322 20.4626 7.73267 20.3773 7.86027C20.2921 7.98788 20.2466 8.13789 20.2466 8.29136C20.2466 8.49715 20.3283 8.69451 20.4738 8.84003C20.6193 8.98554 20.8167 9.06729 21.0225 9.06729ZM21.0225 10.5083C21.461 10.5083 21.8896 10.3783 22.2542 10.1347C22.6188 9.89109 22.9029 9.54485 23.0707 9.13975C23.2385 8.73466 23.2824 8.2889 23.1969 7.85885C23.1113 7.4288 22.9002 7.03378 22.5901 6.72373C22.2801 6.41369 21.8851 6.20254 21.455 6.117C21.025 6.03146 20.5792 6.07536 20.1741 6.24316C19.769 6.41095 19.4228 6.69511 19.1792 7.05968C18.9356 7.42426 18.8055 7.85289 18.8055 8.29136C18.8053 8.58265 18.8625 8.87113 18.9738 9.14031C19.0851 9.4095 19.2483 9.65411 19.4542 9.86017C19.6601 10.0662 19.9046 10.2297 20.1737 10.3412C20.4428 10.4527 20.7312 10.5101 21.0225 10.5101V10.5083Z" fill="#263937"></path> <path d="M27.4334 14.4565C27.4336 14.895 27.3037 15.3237 27.0602 15.6884C26.8168 16.0531 26.4706 16.3374 26.0655 16.5053C25.6604 16.6732 25.2146 16.7173 24.7845 16.6318C24.3544 16.5464 23.9593 16.3353 23.6492 16.0253C23.339 15.7153 23.1278 15.3203 23.0422 14.8902C22.9566 14.4601 23.0004 14.0143 23.1682 13.6092C23.3359 13.204 23.6201 12.8577 23.9847 12.6141C24.3493 12.3705 24.778 12.2404 25.2165 12.2404C25.5076 12.2403 25.7958 12.2975 26.0648 12.4088C26.3338 12.5202 26.5782 12.6834 26.784 12.8892C26.9899 13.0949 27.1532 13.3393 27.2647 13.6082C27.3761 13.8771 27.4334 14.1654 27.4334 14.4565V14.4565Z" fill="white"></path> <path fill-rule="evenodd" clip-rule="evenodd" d="M25.2165 15.2324C25.3699 15.2324 25.52 15.1869 25.6476 15.1016C25.7752 15.0164 25.8746 14.8952 25.9333 14.7534C25.9921 14.6116 26.0074 14.4556 25.9775 14.3051C25.9476 14.1546 25.8737 14.0163 25.7651 13.9078C25.6566 13.7993 25.5184 13.7254 25.3678 13.6954C25.2173 13.6655 25.0613 13.6809 24.9195 13.7396C24.7777 13.7983 24.6566 13.8978 24.5713 14.0254C24.486 14.153 24.4405 14.303 24.4405 14.4565C24.4405 14.6622 24.5223 14.8596 24.6678 15.0051C24.8133 15.1506 25.0107 15.2324 25.2165 15.2324ZM25.2165 16.6734C25.6549 16.6734 26.0836 16.5434 26.4481 16.2998C26.8127 16.0562 27.0969 15.7099 27.2647 15.3048C27.4325 14.8998 27.4764 14.454 27.3908 14.0239C27.3053 13.5939 27.0941 13.1989 26.7841 12.8888C26.474 12.5788 26.079 12.3676 25.649 12.2821C25.2189 12.1966 24.7732 12.2405 24.3681 12.4083C23.963 12.5761 23.6167 12.8602 23.3731 13.2248C23.1295 13.5894 22.9995 14.018 22.9995 14.4565C22.9994 14.7476 23.0567 15.036 23.168 15.305C23.2794 15.574 23.4427 15.8185 23.6486 16.0243C23.8545 16.2302 24.0989 16.3935 24.3679 16.5049C24.637 16.6163 24.9253 16.6735 25.2165 16.6734V16.6734Z" fill="#263937"></path> <path d="M37.581 12.4658C37.581 12.9043 37.451 13.3329 37.2074 13.6975C36.9638 14.062 36.6175 14.3462 36.2124 14.514C35.8073 14.6818 35.3616 14.7257 34.9315 14.6402C34.5015 14.5546 34.1065 14.3435 33.7964 14.0334C33.4864 13.7234 33.2752 13.3283 33.1897 12.8983C33.1042 12.4683 33.1481 12.0225 33.3159 11.6174C33.4836 11.2123 33.7678 10.8661 34.1324 10.6225C34.497 10.3789 34.9256 10.2488 35.3641 10.2488C35.952 10.2488 36.5159 10.4824 36.9317 10.8982C37.3474 11.3139 37.581 11.8778 37.581 12.4658V12.4658Z" fill="white"></path> <path fill-rule="evenodd" clip-rule="evenodd" d="M35.3641 13.2417C35.5175 13.2417 35.6675 13.1962 35.7951 13.111C35.9227 13.0257 36.0222 12.9045 36.0809 12.7627C36.1396 12.6209 36.155 12.4649 36.1251 12.3144C36.0951 12.1639 36.0212 12.0256 35.9127 11.9171C35.8042 11.8086 35.6659 11.7347 35.5154 11.7048C35.3649 11.6748 35.2089 11.6902 35.0671 11.7489C34.9253 11.8077 34.8041 11.9071 34.7189 12.0347C34.6336 12.1623 34.5881 12.3123 34.5881 12.4658C34.5881 12.5677 34.6082 12.6686 34.6472 12.7627C34.6862 12.8569 34.7433 12.9424 34.8154 13.0145C34.8874 13.0865 34.973 13.1437 35.0671 13.1827C35.1613 13.2217 35.2622 13.2417 35.3641 13.2417ZM35.3641 14.6828C35.8025 14.6828 36.2311 14.5527 36.5957 14.3091C36.9603 14.0655 37.2445 13.7193 37.4123 13.3142C37.58 12.9091 37.624 12.4633 37.5384 12.0333C37.4529 11.6032 37.2417 11.2082 36.9317 10.8982C36.6216 10.5881 36.2266 10.377 35.7966 10.2914C35.3665 10.2059 34.9208 10.2498 34.5157 10.4176C34.1106 10.5854 33.7643 10.8695 33.5207 11.2341C33.2771 11.5987 33.1471 12.0273 33.1471 12.4658C33.1471 12.7569 33.2044 13.0452 33.3158 13.3142C33.4273 13.5832 33.5906 13.8276 33.7964 14.0334C34.0023 14.2393 34.2467 14.4026 34.5157 14.514C34.7846 14.6254 35.0729 14.6828 35.3641 14.6828V14.6828Z" fill="#263937"></path> <path d="M33.1472 18.3314C33.1472 18.7699 33.0171 19.1985 32.7735 19.5631C32.5299 19.9276 32.1837 20.2118 31.7786 20.3796C31.3735 20.5474 30.9278 20.5913 30.4977 20.5057C30.0677 20.4202 29.6726 20.2091 29.3626 19.899C29.0525 19.589 28.8414 19.1939 28.7559 18.7639C28.6703 18.3339 28.7142 17.8881 28.882 17.483C29.0498 17.0779 29.334 16.7317 29.6985 16.4881C30.0631 16.2445 30.4917 16.1144 30.9302 16.1144C31.2214 16.1143 31.5097 16.1716 31.7788 16.283C32.0478 16.3943 32.2922 16.5576 32.4981 16.7635C32.704 16.9694 32.8673 17.2138 32.9787 17.4829C33.09 17.7519 33.1473 18.0402 33.1472 18.3314Z" fill="white"></path> <path fill-rule="evenodd" clip-rule="evenodd" d="M30.9302 19.1073C31.0837 19.1073 31.2337 19.0618 31.3613 18.9766C31.4889 18.8913 31.5884 18.7701 31.6471 18.6283C31.7058 18.4865 31.7212 18.3305 31.6912 18.18C31.6613 18.0295 31.5874 17.8912 31.4789 17.7827C31.3704 17.6742 31.2321 17.6003 31.0816 17.5704C30.9311 17.5404 30.7751 17.5558 30.6333 17.6145C30.4915 17.6733 30.3703 17.7727 30.285 17.9003C30.1998 18.0279 30.1543 18.1779 30.1543 18.3314C30.1543 18.5372 30.236 18.7345 30.3815 18.8801C30.5271 19.0256 30.7244 19.1073 30.9302 19.1073V19.1073ZM30.9302 20.5483C31.3687 20.5483 31.7973 20.4183 32.1619 20.1747C32.5265 19.9311 32.8106 19.5849 32.9784 19.1798C33.1462 18.7747 33.1901 18.3289 33.1046 17.8989C33.019 17.4688 32.8079 17.0738 32.4978 16.7638C32.1878 16.4537 31.7928 16.2426 31.3627 16.157C30.9327 16.0715 30.4869 16.1154 30.0818 16.2832C29.6767 16.451 29.3305 16.7351 29.0869 17.0997C28.8433 17.4643 28.7133 17.8929 28.7133 18.3314C28.7131 18.6226 28.7704 18.9109 28.8818 19.1799C28.9931 19.449 29.1564 19.6934 29.3623 19.8993C29.5682 20.1052 29.8127 20.2685 30.0817 20.3798C30.3507 20.4912 30.639 20.5485 30.9302 20.5483V20.5483Z" fill="#263937"></path> <path d="M18.1874 17.8387C18.1874 18.2772 18.0574 18.7058 17.8138 19.0704C17.5702 19.435 17.224 19.7191 16.8189 19.8869C16.4138 20.0547 15.968 20.0986 15.538 20.0131C15.1079 19.9275 14.7129 19.7164 14.4029 19.4063C14.0928 19.0963 13.8817 18.7013 13.7961 18.2712C13.7106 17.8412 13.7545 17.3954 13.9223 16.9903C14.0901 16.5852 14.3742 16.239 14.7388 15.9954C15.1034 15.7518 15.532 15.6218 15.9705 15.6218C16.5584 15.622 17.1221 15.8557 17.5379 16.2714C17.9536 16.6871 18.1872 17.2508 18.1874 17.8387V17.8387Z" fill="white"></path> <path fill-rule="evenodd" clip-rule="evenodd" d="M15.9705 18.6156C16.124 18.6156 16.274 18.5701 16.4016 18.4849C16.5292 18.3996 16.6286 18.2784 16.6874 18.1366C16.7461 17.9949 16.7615 17.8388 16.7315 17.6883C16.7016 17.5378 16.6277 17.3995 16.5192 17.291C16.4106 17.1825 16.2724 17.1086 16.1219 17.0787C15.9714 17.0487 15.8153 17.0641 15.6736 17.1228C15.5318 17.1816 15.4106 17.281 15.3253 17.4086C15.2401 17.5362 15.1946 17.6862 15.1946 17.8397C15.1946 18.0455 15.2763 18.2429 15.4218 18.3884C15.5673 18.5339 15.7647 18.6156 15.9705 18.6156V18.6156ZM15.9705 20.0567C16.4089 20.0567 16.8375 19.9267 17.2021 19.6831C17.5666 19.4395 17.8508 19.0933 18.0186 18.6883C18.1864 18.2833 18.2304 17.8375 18.1449 17.4075C18.0595 16.9775 17.8484 16.5825 17.5384 16.2724C17.2285 15.9623 16.8336 15.7511 16.4036 15.6655C15.9736 15.5798 15.5279 15.6236 15.1227 15.7912C14.7176 15.9589 14.3713 16.2429 14.1276 16.6074C13.8839 16.9718 13.7537 17.4003 13.7535 17.8388C13.7535 18.4268 13.9871 18.9908 14.4028 19.4067C14.8185 19.8226 15.3824 20.0564 15.9705 20.0567V20.0567Z" fill="#263937"></path> <path d="M9.2187 22.7856C9.2187 23.2241 9.08866 23.6528 8.84501 24.0174C8.60137 24.382 8.25508 24.6661 7.84993 24.8339C7.44478 25.0017 6.99898 25.0455 6.5689 24.9599C6.13883 24.8743 5.74381 24.6631 5.4338 24.3529C5.12379 24.0428 4.91272 23.6477 4.82728 23.2176C4.74184 22.7875 4.78587 22.3417 4.95381 21.9366C5.12175 21.5315 5.40604 21.1853 5.77074 20.9418C6.13544 20.6984 6.56415 20.5685 7.00266 20.5687C7.59048 20.5689 8.15413 20.8026 8.56969 21.2183C8.98526 21.6341 9.2187 22.1978 9.2187 22.7856V22.7856Z" fill="white"></path> <path fill-rule="evenodd" clip-rule="evenodd" d="M7.00077 23.5608C7.15427 23.5608 7.30433 23.5153 7.43195 23.43C7.55957 23.3447 7.65903 23.2235 7.71773 23.0816C7.77643 22.9398 7.79174 22.7837 7.76173 22.6332C7.73171 22.4826 7.65772 22.3444 7.54911 22.2359C7.44051 22.1274 7.30216 22.0536 7.15159 22.0238C7.00101 21.9939 6.84496 22.0094 6.7032 22.0683C6.56143 22.1272 6.44031 22.2267 6.35516 22.3545C6.27001 22.4822 6.22465 22.6323 6.22484 22.7858C6.22508 22.9914 6.30694 23.1886 6.45242 23.3339C6.59791 23.4792 6.79514 23.5608 7.00077 23.5608V23.5608ZM7.00077 25.0018C7.43928 25.0018 7.86794 24.8718 8.23254 24.6282C8.59714 24.3845 8.88129 24.0382 9.04906 23.6331C9.21683 23.2279 9.26068 22.7821 9.17506 22.352C9.08944 21.922 8.87821 21.527 8.56807 21.2169C8.25793 20.9069 7.86282 20.6959 7.43271 20.6104C7.00261 20.525 6.55682 20.569 6.15174 20.737C5.74666 20.9049 5.40049 21.1892 5.15699 21.5539C4.9135 21.9186 4.78363 22.3473 4.78381 22.7858C4.78406 23.3736 5.01774 23.9373 5.43347 24.3528C5.8492 24.7684 6.41296 25.0018 7.00077 25.0018V25.0018Z" fill="#263937"></path> <path d="M12.557 27.8799C12.557 28.3184 12.4269 28.747 12.1833 29.1116C11.9397 29.4762 11.5935 29.7603 11.1884 29.9281C10.7833 30.0959 10.3375 30.1398 9.9075 30.0543C9.47745 29.9687 9.08243 29.7576 8.77238 29.4475C8.46233 29.1375 8.25119 28.7425 8.16565 28.3124C8.0801 27.8824 8.12401 27.4366 8.2918 27.0315C8.4596 26.6264 8.74375 26.2802 9.10833 26.0366C9.47291 25.793 9.90153 25.663 10.34 25.663C10.928 25.663 11.4919 25.8965 11.9076 26.3123C12.3234 26.7281 12.557 27.2919 12.557 27.8799Z" fill="white"></path> <path fill-rule="evenodd" clip-rule="evenodd" d="M10.34 28.6559C10.4935 28.6559 10.6435 28.6103 10.7711 28.5251C10.8987 28.4398 10.9981 28.3186 11.0569 28.1769C11.1156 28.0351 11.131 27.8791 11.101 27.7285C11.0711 27.578 10.9972 27.4398 10.8887 27.3313C10.7802 27.2227 10.6419 27.1488 10.4914 27.1189C10.3409 27.089 10.1848 27.1043 10.0431 27.163C9.90128 27.2218 9.7801 27.3212 9.69484 27.4488C9.60958 27.5764 9.56407 27.7265 9.56407 27.8799C9.56407 27.9818 9.58414 28.0827 9.62313 28.1769C9.66213 28.271 9.71928 28.3565 9.79133 28.4286C9.86339 28.5006 9.94892 28.5578 10.0431 28.5968C10.1372 28.6358 10.2381 28.6559 10.34 28.6559ZM10.34 30.0969C10.7785 30.0969 11.2071 29.9669 11.5717 29.7233C11.9363 29.4797 12.2204 29.1334 12.3882 28.7283C12.556 28.3232 12.5999 27.8775 12.5144 27.4474C12.4288 27.0174 12.2177 26.6223 11.9076 26.3123C11.5976 26.0022 11.2026 25.7911 10.7725 25.7056C10.3425 25.62 9.89671 25.6639 9.49161 25.8317C9.08651 25.9995 8.74027 26.2837 8.49667 26.6482C8.25307 27.0128 8.12305 27.4414 8.12305 27.8799C8.12305 28.4679 8.35662 29.0318 8.77238 29.4475C9.18814 29.8633 9.75203 30.0969 10.34 30.0969V30.0969Z" fill="#263937"></path> <path d="M39.8284 40L38.9464 37.462H33.5824L32.7004 40H30.4504L35.0224 27.4H37.5064L42.0604 40H39.8284ZM34.2664 35.518H38.2624L36.2644 29.83L34.2664 35.518ZM44.7653 29.74V28.048H49.8053V29.74H44.7653ZM49.8053 31H51.2993V40H49.3913V34.276L44.7833 40H43.2893V31H45.1973V36.706L49.8053 31ZM60.4309 31V32.872H57.4969V40H55.5529V32.872H52.6009V31H60.4309ZM68.2623 31H69.7563V40H67.8483V34.276L63.2403 40H61.7463V31H63.6543V36.706L68.2623 31ZM78.0419 31V32.872H73.9559V40H72.0119V31H78.0419ZM80.538 36.328C80.682 37.012 81.012 37.54 81.528 37.912C82.044 38.272 82.674 38.452 83.418 38.452C84.45 38.452 85.224 38.08 85.74 37.336L87.342 38.272C86.454 39.58 85.14 40.234 83.4 40.234C81.936 40.234 80.754 39.79 79.854 38.902C78.954 38.002 78.504 36.868 78.504 35.5C78.504 34.156 78.948 33.034 79.836 32.134C80.724 31.222 81.864 30.766 83.256 30.766C84.576 30.766 85.656 31.228 86.496 32.152C87.348 33.076 87.774 34.198 87.774 35.518C87.774 35.722 87.75 35.992 87.702 36.328H80.538ZM80.52 34.744H85.812C85.68 34.012 85.374 33.46 84.894 33.088C84.426 32.716 83.874 32.53 83.238 32.53C82.518 32.53 81.918 32.728 81.438 33.124C80.958 33.52 80.652 34.06 80.52 34.744ZM95.5506 31H97.4946V40H95.5506V36.418H91.4286V40H89.4846V31H91.4286V34.582H95.5506V31ZM106.266 31H107.76V40H105.852V34.276L101.244 40H99.7502V31H101.658V36.706L106.266 31ZM114.264 40.234C112.944 40.234 111.822 39.778 110.898 38.866C109.974 37.954 109.512 36.832 109.512 35.5C109.512 34.168 109.974 33.046 110.898 32.134C111.822 31.222 112.944 30.766 114.264 30.766C115.596 30.766 116.718 31.222 117.63 32.134C118.554 33.046 119.016 34.168 119.016 35.5C119.016 36.832 118.554 37.954 117.63 38.866C116.718 39.778 115.596 40.234 114.264 40.234ZM112.266 37.534C112.806 38.074 113.472 38.344 114.264 38.344C115.056 38.344 115.722 38.074 116.262 37.534C116.802 36.994 117.072 36.316 117.072 35.5C117.072 34.684 116.802 34.006 116.262 33.466C115.722 32.926 115.056 32.656 114.264 32.656C113.472 32.656 112.806 32.926 112.266 33.466C111.726 34.006 111.456 34.684 111.456 35.5C111.456 36.316 111.726 36.994 112.266 37.534Z" fill="#1F2737"></path> <defs> <linearGradient id="paint0_linear_1252_1092" x1="-1.79917" y1="27.2177" x2="45.367" y2="5.0216" gradientUnits="userSpaceOnUse"> <stop stop-color="#2D7CFF"></stop> <stop offset="0.41" stop-color="#A3C12F"></stop> <stop offset="0.88" stop-color="#F7D72E"></stop> </linearGradient> </defs> </svg> 