<?xml version="1.0" encoding="UTF-8"?> <svg xmlns="http://www.w3.org/2000/svg" width="24" height="24" viewBox="0 0 24 24" fill="none"> <circle cx="12" cy="12" r="12" fill="#2D7CFF"></circle> <g clip-path="url(#clip0_1256_1103)"> <path d="M6.867 9.7415C7.34582 9.7415 7.73399 9.35165 7.73399 8.87075C7.73399 8.38985 7.34582 8 6.867 8C6.38817 8 6 8.38985 6 8.87075C6 9.35165 6.38817 9.7415 6.867 9.7415Z" fill="white"></path> <path d="M16.0784 9.85034H9.41337C8.92569 9.85034 8.49219 9.41497 8.49219 8.92517C8.49219 8.43537 8.8715 8 9.41337 8H16.1326C16.6203 8 17.0538 8.43537 17.0538 8.92517C16.9996 9.46939 16.6203 9.85034 16.0784 9.85034Z" fill="white"></path> <path d="M6.867 12.7893C7.34582 12.7893 7.73399 12.3995 7.73399 11.9186C7.73399 11.4377 7.34582 11.0479 6.867 11.0479C6.38817 11.0479 6 11.4377 6 11.9186C6 12.3995 6.38817 12.7893 6.867 12.7893Z" fill="white"></path> <path d="M16.0784 12.8982H9.41337C8.8715 12.8982 8.49219 12.4628 8.49219 11.973C8.49219 11.4832 8.92569 11.0479 9.41337 11.0479H16.1326C16.6203 11.0479 17.0538 11.4832 17.0538 11.973C16.9996 12.4628 16.6203 12.8982 16.0784 12.8982Z" fill="white"></path> <path d="M6.867 15.8914C7.34582 15.8914 7.73399 15.5016 7.73399 15.0207C7.73399 14.5397 7.34582 14.1499 6.867 14.1499C6.38817 14.1499 6 14.5397 6 15.0207C6 15.5016 6.38817 15.8914 6.867 15.8914Z" fill="white"></path> <path d="M16.0784 15.9998H9.41337C8.92569 15.9998 8.49219 15.5644 8.49219 15.0746C8.49219 14.5848 8.92569 14.1494 9.41337 14.1494H16.1326C16.6203 14.1494 17.0538 14.5848 17.0538 15.0746C16.9996 15.5644 16.6203 15.9998 16.0784 15.9998Z" fill="white"></path> </g> <defs> <clipPath id="clip0_1256_1103"> <rect width="11" height="8" fill="white" transform="translate(6 8)"></rect> </clipPath> </defs> </svg> 